<svg xmlns="http://www.w3.org/2000/svg" width="214.175" height="167.821" viewBox="0 0 214.175 167.821">
  <g id="_1f440" data-name="1f440" transform="translate(-0.125 -3.969)">
    <ellipse id="Ellipse_13" data-name="Ellipse 13" cx="47.562" cy="79.425" rx="47.562" ry="79.425" transform="translate(4.61 8.454)" fill="#f5f8fa"/>
    <path id="Path_27" data-name="Path 27" d="M52.172,171.79C22.988,171.79.125,134.933.125,87.88S22.988,3.969,52.172,3.969s52.047,36.857,52.047,83.911S81.356,171.79,52.172,171.79Zm0-158.85C28.418,12.94,9.1,46.555,9.1,87.88s19.323,74.94,43.077,74.94S95.249,129.2,95.249,87.88,75.926,12.94,52.172,12.94Z" transform="translate(0 0)" fill="#e1e8ed"/>
    <circle id="Ellipse_14" data-name="Ellipse 14" cx="29.663" cy="29.663" r="29.663" transform="translate(9.149 58.217)" fill="#8899a6"/>
    <circle id="Ellipse_15" data-name="Ellipse 15" cx="21.32" cy="21.32" r="21.32" transform="translate(17.492 66.56)" fill="#292f33"/>
    <circle id="Ellipse_16" data-name="Ellipse 16" cx="8.528" cy="8.528" r="8.528" transform="translate(38.16 64.06)" fill="#f5f8fa"/>
    <ellipse id="Ellipse_17" data-name="Ellipse 17" cx="47.562" cy="79.425" rx="47.562" ry="79.425" transform="translate(114.685 8.454)" fill="#f5f8fa"/>
    <path id="Path_28" data-name="Path 28" d="M70.578,171.79c-29.184,0-52.047-36.857-52.047-83.911S41.394,3.969,70.578,3.969s52.053,36.857,52.053,83.911S99.762,171.79,70.578,171.79Zm0-158.85C46.824,12.94,27.5,46.561,27.5,87.879s19.323,74.94,43.077,74.94,43.083-33.616,43.083-74.94S94.332,12.94,70.578,12.94Z" transform="translate(91.669 0)" fill="#e1e8ed"/>
    <circle id="Ellipse_18" data-name="Ellipse 18" cx="29.663" cy="29.663" r="29.663" transform="translate(119.224 58.217)" fill="#8899a6"/>
    <circle id="Ellipse_19" data-name="Ellipse 19" cx="21.32" cy="21.32" r="21.32" transform="translate(127.567 66.56)" fill="#292f33"/>
    <circle id="Ellipse_20" data-name="Ellipse 20" cx="8.528" cy="8.528" r="8.528" transform="translate(148.235 64.06)" fill="#f5f8fa"/>
  </g>
</svg>
