<svg id="github-icon" xmlns="http://www.w3.org/2000/svg" width="59.5" height="58.031" viewBox="0 0 59.5 58.031">
  <path id="Path_1" data-name="Path 1" d="M29.75,0a29.753,29.753,0,0,0-9.405,57.98c1.487.275,2.033-.645,2.033-1.431,0-.709-.028-3.053-.04-5.539-8.277,1.8-10.023-3.51-10.023-3.51-1.353-3.439-3.3-4.353-3.3-4.353-2.7-1.847.2-1.809.2-1.809a6.253,6.253,0,0,1,4.56,3.066c2.653,4.548,6.96,3.233,8.657,2.473A6.336,6.336,0,0,1,24.321,42.9c-6.608-.752-13.554-3.3-13.554-14.7a11.514,11.514,0,0,1,3.065-7.985,10.69,10.69,0,0,1,.288-7.873s2.5-.8,8.183,3.05a28.219,28.219,0,0,1,14.9,0c5.678-3.849,8.173-3.05,8.173-3.05a10.677,10.677,0,0,1,.292,7.873A11.491,11.491,0,0,1,48.73,28.2c0,11.427-6.96,13.943-13.584,14.679,1.067.923,2.018,2.734,2.018,5.509,0,3.98-.034,7.184-.034,8.164,0,.792.535,1.719,2.043,1.427A29.754,29.754,0,0,0,29.75,0ZM11.142,42.38c-.066.148-.3.192-.51.091s-.337-.3-.267-.447.3-.195.512-.093S11.217,42.232,11.142,42.38Zm1.463,1.306c-.142.132-.419.07-.607-.137a.455.455,0,0,1-.087-.618c.146-.132.415-.07.61.137S12.754,43.553,12.606,43.686Zm1,1.671c-.182.127-.48.008-.665-.257s-.182-.582,0-.709.478-.013.665.25S13.8,45.227,13.61,45.356Zm1.7,1.935c-.163.18-.51.132-.765-.114s-.333-.58-.169-.76.514-.13.771.114S15.482,47.113,15.308,47.291Zm2.194.653c-.072.233-.406.339-.743.24s-.557-.375-.489-.61.406-.345.745-.239S17.572,47.707,17.5,47.944Zm2.5.277c.008.245-.277.449-.631.453s-.643-.191-.647-.432.279-.449.635-.455S20,47.977,20,48.221Zm2.453-.094c.042.239-.2.485-.555.551s-.665-.085-.709-.322.207-.491.552-.555S22.408,47.884,22.452,48.127Z" transform="translate(0)" fill="#161614"/>
</svg>
