<svg version="1.1" width="29.25" height="29.25" xmlns="http://www.w3.org/2000/svg" viewBox="0 0 29.2 29.2">
<style type="text/css">
	.st0{fill:#FFFFFF;}
</style>
<path id="Icon_ionic-ios-moon" class="st0" d="M26.7,22.1c-0.2,0-0.5,0-0.7,0c-4,0-7.8-1.5-10.5-4.1c-2.8-2.6-4.4-6.1-4.4-9.8
	c0-2.1,0.5-4.1,1.5-6c0.3-0.6,0.7-1.2,1.1-1.8c0.1-0.1,0.1-0.3-0.1-0.4c-0.1,0-0.2-0.1-0.2,0C5.6,1.2,0,7.4,0,14.6
	c-0.1,8.1,7,14.6,15.8,14.7c4.7,0,9.1-1.9,12-5.2c0.5-0.5,1-1.1,1.4-1.7c0.1-0.1,0-0.3-0.1-0.4c-0.1,0-0.2-0.1-0.2,0
	C28.1,22,27.4,22.1,26.7,22.1z"/>
</svg>
