<svg xmlns="http://www.w3.org/2000/svg" width="59.5" height="58.031" viewBox="0 0 59.5 58.031">
  <path id="Icon_awesome-whatsapp" data-name="Icon awesome-whatsapp" d="M50.588,10.683A29.641,29.641,0,0,0,29.737,2.25C13.48,2.25.252,15.152.252,31.007A28.242,28.242,0,0,0,4.184,45.385L0,60.281l15.632-4a29.984,29.984,0,0,0,14.091,3.5h.013c16.243,0,29.763-12.9,29.763-28.757a28.529,28.529,0,0,0-8.912-20.337ZM29.737,54.932A24.936,24.936,0,0,1,17.252,51.6l-.89-.518-9.27,2.37,2.47-8.821-.584-.907a23.39,23.39,0,0,1-3.745-12.72c0-13.174,11-23.9,24.517-23.9a24.6,24.6,0,0,1,17.319,7.008,23.715,23.715,0,0,1,7.451,16.9c0,13.187-11.276,23.912-24.783,23.912Zm13.441-17.9c-.73-.363-4.356-2.1-5.034-2.332s-1.169-.363-1.66.363-1.9,2.332-2.337,2.824-.863.544-1.594.181c-4.33-2.111-7.172-3.769-10.027-8.549-.757-1.269.757-1.179,2.165-3.925a1.3,1.3,0,0,0-.066-1.256c-.186-.363-1.66-3.9-2.271-5.337-.6-1.4-1.209-1.2-1.66-1.231-.425-.026-.916-.026-1.408-.026a2.761,2.761,0,0,0-1.966.894,7.992,7.992,0,0,0-2.577,6c0,3.536,2.643,6.956,3,7.435S22.937,39.8,30.334,42.924c4.675,1.969,6.508,2.137,8.845,1.8,1.421-.207,4.356-1.736,4.967-3.42a5.871,5.871,0,0,0,.425-3.42C44.4,37.561,43.908,37.38,43.177,37.03Z" transform="translate(0 -2.25)" fill="#161614"/>
</svg>
